PathFileType	4	(X/Y/Z)	/Users/mathieubourgeois/Desktop/Analyse/Traitement/Sujet_03/Data/Transformed_Sujet_03_velo_80.trc
DataRate	CameraRate	NumFrames	NumMarkers	Units	OrigDataRate	OrigDataStartFrame	OrigNumFrames
120.000000	120.000000	4	36	mm	120.000000	0	1868
Frame#	Time	RFHD			LFHD			RBHD			LBHD			C7			CLAV			RSHO			LSHO			STRN			T10			RBWT			LBWT			RFWT			LFWT			RKNI			LKNI			RKNE			LKNE			LANI			RANI			LANE			RANE			LTOE			RTOE			LHEE			RHEE			RHUM			LHUM			RRAD			LRAD			RWRA			RWRB			LWRA			LWRB			LCAR			RCAR			
		X1	Y1	Z1	X2	Y2	Z2	X3	Y3	Z3	X4	Y4	Z4	X5	Y5	Z5	X6	Y6	Z6	X7	Y7	Z7	X8	Y8	Z8	X9	Y9	Z9	X10	Y10	Z10	X11	Y11	Z11	X12	Y12	Z12	X13	Y13	Z13	X14	Y14	Z14	X15	Y15	Z15	X16	Y16	Z16	X17	Y17	Z17	X18	Y18	Z18	X19	Y19	Z19	X20	Y20	Z20	X21	Y21	Z21	X22	Y22	Z22	X23	Y23	Z23	X24	Y24	Z24	X25	Y25	Z25	X26	Y26	Z26	X27	Y27	Z27	X28	Y28	Z28	X29	Y29	Z29	X30	Y30	Z30	X31	Y31	Z31	X32	Y32	Z32	X33	Y33	Z33	X34	Y34	Z34	X35	Y35	Z35	X36	Y36	Z36	

1	0	155.7093048095703	1558.067626953125	105.8308029174804	137.0469207763672	1556.741577148438	-46.81035995483406	43.728458404541	1627.664916992188	121.8502655029296	16.58837318420411	1641.947998046875	-24.56871032714853	-107.0355911254883	1550.540893554688	46.75490570068349	-76.27622222900391	1395.06591796875	42.129051208496	-50.41565704345706	1481.83740234375	214.0821075439452	-76.83290863037108	1505.086669921875	-141.4944152832032	-178.2171783447266	1260.188354492188	40.74593353271474	-324.0617065429688	1454.645385742188	42.77958679199205	-526.6973266601562	1267.65234375	113.2518157958983	-527.0384521484375	1265.934814453125	-10.19515991210952	-381.3977355957031	1191.322509765625	177.815460205078	-377.1983947753906	1186.045043945312	-66.96739959716808	-195.6319885253906	697.6734619140625	110.3765029907226	-23.64942932128906	910.6815185546875	-60.76522445678717	-197.1012268066407	747.9600830078125	224.2181396484374	-38.87564849853513	951.671630859375	-170.6971740722657	-186.3844299316406	570.5059814453125	-60.6642570495606	-375.2991943359375	366.2700805664062	116.4239501953124	-204.5362091064453	544.968017578125	-146.0306549072266	-403.5841979980469	360.4927673339844	204.8235931396484	-20.82423019409179	464.8520202636719	-93.46890258789065	-265.02587890625	193.2765808105469	146.5595245361328	-276.3875427246094	529.4546508789062	-104.6882629394532	-475.2039794921875	366.4068603515625	161.5332031249999	25.178352355957	1187.646728515625	237.1319580078124	10.41058444976808	1196.333374023438	-150.2757568359376	77.77844238281246	1211.430541992188	293.2786865234374	58.15847396850589	1230.01904296875	-208.1928710937501	280.6029663085938	1041.64453125	217.0483245849609	268.0214538574218	1028.594604492188	296.4657592773438	248.6951141357422	1060.145629882812	-129.4815368652344	228.6233520507813	1045.206909179688	-207.220703125	325.5301818847656	1033.20068359375	-223.6326293945313	372.0056762695312	1028.394775390625	299.7000122070312	
2	0.008333333333333333	155.4426422119141	1557.733642578125	106.3156661987304	136.7129974365234	1556.443359375	-46.29584884643563	43.47071456909178	1627.436157226562	122.3895416259765	16.33722496032715	1641.778686523438	-23.99019622802744	-107.3813400268555	1550.313110351562	47.34027099609364	-76.70455932617188	1394.839477539062	42.63387298583975	-50.92852401733401	1481.670532226562	214.5987548828124	-77.01839447021483	1505.168701171875	-140.9678039550782	-178.6647644042969	1260.028686523438	41.01501846313467	-324.462646484375	1454.461303710938	42.79603958129869	-527.0553588867188	1267.431884765625	112.7950744628905	-527.2263793945312	1265.503662109375	-10.66335964202895	-381.6984558105469	1191.295166015625	177.5678405761717	-377.1728820800781	1185.24951171875	-67.26766204833996	-191.2588043212891	701.8755493164062	110.7240829467773	-25.4515037536621	902.8751220703125	-59.8781471252442	-192.9453430175782	752.4411010742188	224.7788085937499	-40.73724365234373	944.4757690429688	-169.7540283203126	-181.9034423828125	559.7427978515625	-61.04976272583013	-379.3483581542969	375.3221130371094	117.1653976440429	-197.9511413574218	533.8753662109375	-147.048568725586	-407.6314392089844	370.0868835449219	205.5625457763671	-14.06338787078856	457.13525390625	-93.71918487548831	-272.5060729980469	200.6892395019531	146.9063873291015	-270.4450073242188	516.82763671875	-104.9199600219727	-479.3647155761719	377.5392150878906	162.4336700439452	25.15310287475583	1187.220336914062	234.7828216552734	10.25985145568849	1196.4482421875	-150.0622558593751	77.51365661621089	1211.326171875	293.3638000488281	58.03897094726565	1230.220581054688	-207.9887084960938	280.4881286621094	1041.745849609375	217.0350799560547	267.8778991699218	1028.658935546875	296.4578857421875	248.5949859619141	1060.178588867188	-129.4789428710938	228.4884948730469	1045.330688476562	-207.204574584961	325.3812255859375	1033.2783203125	-223.6383209228516	371.8811035156249	1028.488403320312	299.6773986816406	
3	0.01666666666666667	155.2166748046875	1557.70068359375	106.9161071777343	136.4052276611328	1556.216918945312	-45.73177337646492	43.20382690429686	1627.201293945312	122.9786987304687	16.09796142578125	1641.618286132812	-23.39155006408701	-107.7036895751953	1550.086547851562	47.84120559692372	-77.02163696289062	1394.620239257812	43.04601669311514	-51.41364288330081	1481.475341796875	215.0463562011718	-77.17647552490233	1505.207885742188	-140.3731842041016	-178.9900512695312	1259.85107421875	41.23049926757803	-324.8067626953125	1454.291870117188	42.8227615356444	-527.4053344726562	1267.1962890625	112.3826522827147	-527.3912963867188	1265.071533203125	-11.10495281219497	-381.9804382324219	1191.253784179688	177.3382720947264	-377.1909790039062	1184.481811523438	-67.55796813964855	-186.8914489746094	706.3300170898438	111.1995849609374	-27.58853721618652	894.4705810546875	-59.03080368041998	-188.132308959961	756.5847778320312	225.1718292236327	-43.01612854003904	936.7124633789062	-168.9512481689454	-178.7675018310547	549.2039184570312	-61.43011856079107	-377.9033813476562	387.2168273925781	119.4838790893554	-193.2850799560547	522.4614868164062	-147.6919555664063	-411.0615539550781	380.0396728515625	206.273712158203	-7.562839984893787	448.917724609375	-93.78800201416018	-279.4481201171875	208.5172424316406	147.1905975341797	-266.8774719238281	504.5249633789062	-104.7916412353516	-484.3114624023438	389.9836120605469	164.0046234130859	24.93586921691892	1187.132202148438	234.7223510742187	10.11753177642824	1196.530029296875	-149.8537139892579	77.25256347656246	1211.245727539062	293.4947204589843	57.93420791625979	1230.384765625	-207.7310943603516	280.3282775878906	1041.862182617188	217.0558776855468	267.7403869628906	1028.7236328125	296.46337890625	248.4872589111328	1060.220458984375	-129.4342346191407	228.3377532958985	1045.443969726562	-207.178466796875	325.2438049316406	1033.382202148438	-223.6324768066407	371.7608032226562	1028.593139648438	299.67138671875	
4	0.025	154.7914733886719	1557.2138671875	107.5699081420898	136.1366119384766	1556.0498046875	-45.07196426391609	42.93952178955077	1626.969970703125	123.6537170410155	15.8296766281128	1641.483764648438	-22.7179946899415	-107.9969711303711	1549.859375	48.42442321777333	-77.54270935058594	1395.081298828125	43.3674545288085	-51.95388793945315	1481.298095703125	215.628677368164	-77.30722045898436	1505.241333007812	-139.8684387207032	-179.3322906494141	1259.681518554688	41.50144577026357	-325.1261291503906	1454.105712890625	42.87003326416002	-527.7296142578125	1266.535400390625	111.6849288940428	-527.5536499023438	1264.646118164062	-11.49793052673354	-382.23046875	1191.266479492188	177.1324005126952	-377.21484375	1183.722290039062	-67.73091888427746	-181.9870147705078	711.3226318359375	111.6902618408202	-28.96131515502929	884.1923828125	-59.22062301635748	-182.9276123046875	760.8057861328125	225.7590026855468	-44.55951309204099	928.120849609375	-167.9506378173829	-175.0376434326172	536.9902954101562	-61.92326736450201	-381.0269775390625	397.4994506835938	120.248435974121	-188.8163146972656	510.4483337402344	-148.3286590576172	-413.9548950195312	391.1842956542969	207.2972412109374	-2.006123304367054	440.1596069335938	-94.22451019287112	-285.9166564941406	218.2564239501953	147.8555603027343	-260.7793579101562	490.9442749023438	-106.7347106933594	-487.5311889648438	401.8714294433594	164.1529388427734	24.53736305236814	1187.425659179688	237.2440643310546	10.00032997131349	1196.618408203125	-149.6258544921876	76.84767913818355	1211.764526367188	293.8469238281249	57.84635543823245	1230.482543945312	-207.3961791992188	282.5618591308594	1041.986450195312	216.9232482910156	267.5794982910156	1028.250244140625	296.0770874023438	247.547119140625	1060.002807617188	-129.5272674560547	228.2288818359375	1045.5478515625	-207.1393127441407	325.1361389160156	1033.486450195312	-223.5992279052735	371.6405944824218	1028.697143554688	299.6900024414062	
